<svg width="49" height="51" viewBox="0 0 49 51" fill="none" xmlns="http://www.w3.org/2000/svg">
<g filter="url(#filter0_d_4530_82)">
<path d="M24.8375 17.2125C25.95 17.2125 27.0376 17.5424 27.9626 18.1605C28.8876 18.7786 29.6086 19.6571 30.0343 20.6849C30.4601 21.7127 30.5715 22.8437 30.3544 23.9349C30.1374 25.026 29.6016 26.0283 28.815 26.815C28.0283 27.6016 27.026 28.1374 25.9349 28.3544C24.8437 28.5715 23.7127 28.4601 22.6849 28.0343C21.6571 27.6086 20.7786 26.8876 20.1605 25.9626C19.5424 25.0376 19.2125 23.95 19.2125 22.8375C19.2144 21.3462 19.8076 19.9166 20.8621 18.8621C21.9166 17.8076 23.3462 17.2144 24.8375 17.2125ZM24.8375 14.4C23.1687 14.4 21.5374 14.8949 20.1499 15.822C18.7623 16.7491 17.6809 18.0669 17.0423 19.6086C16.4037 21.1504 16.2366 22.8469 16.5621 24.4836C16.8877 26.1203 17.6913 27.6237 18.8713 28.8037C20.0513 29.9837 21.5547 30.7873 23.1914 31.1129C24.8281 31.4384 26.5246 31.2713 28.0664 30.6327C29.6081 29.9941 30.9259 28.9127 31.853 27.5251C32.7802 26.1376 33.275 24.5063 33.275 22.8375C33.275 20.5997 32.3861 18.4536 30.8037 16.8713C29.2214 15.2889 27.0753 14.4 24.8375 14.4Z" fill="white"/>
<path d="M9.58531 9.58078L11.5737 7.59094L16.5041 12.5213L14.5156 14.5097L9.58531 9.58078Z" fill="white"/>
<path d="M4.8125 21.1008H11.8438V23.9133H4.8125V21.1008Z" fill="white"/>
<path d="M9.58531 35.4333L14.5156 30.503L16.5041 32.4928L11.5737 37.4217L9.58531 35.4333Z" fill="white"/>
<path d="M23.0938 35.1633H25.9062V42.1945H23.0938V35.1633Z" fill="white"/>
<path d="M32.4973 32.4928L34.4858 30.503L39.4161 35.4333L37.4277 37.4217L32.4973 32.4928Z" fill="white"/>
<path d="M37.1562 21.1008H44.1875V23.9133H37.1562V21.1008Z" fill="white"/>
<path d="M32.4973 12.5213L37.4277 7.59094L39.4161 9.58078L34.4858 14.5097L32.4973 12.5213Z" fill="white"/>
<path d="M23.0938 2.81953H25.9062V9.85078H23.0938V2.81953Z" fill="white"/>
</g>
<defs>
<filter id="filter0_d_4530_82" x="-2" y="0" width="53" height="53" filterUnits="userSpaceOnUse" color-interpolation-filters="sRGB">
<feFlood flood-opacity="0" result="BackgroundImageFix"/>
<feColorMatrix in="SourceAlpha" type="matrix" values="0 0 0 0 0 0 0 0 0 0 0 0 0 0 0 0 0 0 127 0" result="hardAlpha"/>
<feOffset dy="4"/>
<feGaussianBlur stdDeviation="2"/>
<feComposite in2="hardAlpha" operator="out"/>
<feColorMatrix type="matrix" values="0 0 0 0 0 0 0 0 0 0 0 0 0 0 0 0 0 0 0.25 0"/>
<feBlend mode="normal" in2="BackgroundImageFix" result="effect1_dropShadow_4530_82"/>
<feBlend mode="normal" in="SourceGraphic" in2="effect1_dropShadow_4530_82" result="shape"/>
</filter>
</defs>
</svg>
